<svg width="343" height="161" viewBox="0 0 343 161" fill="none" xmlns="http://www.w3.org/2000/svg">
<path d="M2.985 74V21.5H11.7L13.59 30.005C16.005 24.23 21.99 20.24 29.025 20.24C36.165 20.24 42.465 24.335 45.195 30.32C47.82 24.335 54.225 20.24 61.575 20.24C72.39 20.24 80.16 29.06 80.16 41.345V74H69.135V42.815C69.135 36.095 64.83 31.16 58.845 31.16C52.125 31.16 47.295 36.83 47.295 44.6V74H36.48V43.025C36.48 36.095 32.07 31.16 25.98 31.16C19.05 31.16 14.01 36.935 14.01 45.02V74H2.985ZM94.4211 21.5H105.446V74H94.4211V21.5ZM99.9861 15.515C95.6811 15.515 92.6361 12.26 92.6361 7.84999C92.6361 3.43999 95.6811 0.289998 99.9861 0.289998C104.291 0.289998 107.336 3.43999 107.336 7.84999C107.336 12.26 104.291 15.515 99.9861 15.515ZM120.642 74V21.5H129.462L131.142 30.11C133.977 24.23 140.592 20.24 148.152 20.24C159.702 20.24 167.892 29.375 167.892 41.87V74H156.867V43.655C156.867 36.305 152.037 31.055 145.002 31.055C137.337 31.055 131.667 37.04 131.667 45.44V74H120.642ZM203.242 75.26C189.277 75.26 179.302 63.815 179.302 47.75C179.302 31.58 189.172 20.24 203.137 20.24C210.277 20.24 216.472 23.39 220.672 28.745V2.6H231.697V63.5L231.907 74H222.877L221.197 66.125C216.997 71.795 210.697 75.26 203.242 75.26ZM205.762 64.445C214.477 64.445 220.777 57.41 220.777 47.75C220.777 37.88 214.477 30.845 205.762 30.845C197.047 30.845 190.747 37.88 190.747 47.75C190.747 57.41 197.047 64.445 205.762 64.445ZM266.653 75.26C253.738 75.26 244.078 68.225 243.238 58.46L255.838 55.52C256.153 61.19 260.983 65.39 267.388 65.39C272.323 65.39 275.998 62.765 275.998 58.985C275.998 48.17 245.758 52.265 245.758 34.94C245.758 26.225 253.843 20.24 265.288 20.24C277.048 20.24 285.553 26.33 286.393 34.835L274.423 37.565C274.318 32.945 270.433 29.795 264.973 29.795C260.353 29.795 257.203 32.105 257.203 35.465C257.203 45.965 287.863 41.66 287.863 59.405C287.863 68.645 279.043 75.26 266.653 75.26ZM295.607 51.845V42.185H332.882V51.845H295.607ZM25.98 160.26C10.86 160.26 0.15 148.815 0.15 132.855C0.15 116.685 10.755 105.24 25.77 105.24C37.95 105.24 47.715 113.01 49.29 123.93L38.37 127.29C37.32 120.465 32.175 115.74 25.665 115.74C17.475 115.74 11.805 122.88 11.805 132.645C11.805 142.515 17.685 149.445 25.98 149.445C32.805 149.445 38.055 144.72 38.79 137.37L50.13 140.94C48.24 152.595 38.265 160.26 25.98 160.26ZM58.9738 159V87.6H69.9988V159H58.9738ZM100.943 160.26C89.3926 160.26 81.2026 151.755 81.2026 139.47V106.5H92.2276V137.37C92.2276 144.195 97.1626 149.235 104.093 149.235C111.443 149.235 116.693 143.67 116.693 136.005V106.5H127.718V148.5L127.928 159H118.793L116.903 151.02C114.488 156.585 108.398 160.26 100.943 160.26ZM168.545 160.26C160.985 160.26 154.58 156.795 150.485 150.915L148.7 159H139.775V87.6H150.8V113.955C155 108.495 161.195 105.24 168.545 105.24C182.195 105.24 192.065 116.58 192.065 132.54C192.065 148.71 182.195 160.26 168.545 160.26ZM165.71 149.445C174.425 149.445 180.62 142.41 180.62 132.75C180.62 122.88 174.425 115.845 165.71 115.845C156.89 115.845 150.695 122.88 150.695 132.75C150.695 142.41 156.89 149.445 165.71 149.445ZM201.825 159.56C199.235 159.56 197.345 157.6 197.345 154.94C197.345 152.28 199.235 150.32 201.825 150.32C204.415 150.32 206.305 152.28 206.305 154.94C206.305 157.6 204.415 159.56 201.825 159.56ZM228.439 159.84C218.499 159.84 211.359 152.21 211.359 141.5C211.359 130.79 218.359 123.16 228.159 123.16C236.209 123.16 242.719 128.27 243.839 135.48L237.959 137.44C237.399 132.33 233.339 128.62 228.159 128.62C221.859 128.62 217.379 133.94 217.379 141.36C217.379 148.92 221.999 154.24 228.439 154.24C233.759 154.24 237.679 150.6 238.239 145L244.399 146.96C243.279 154.45 236.629 159.84 228.439 159.84ZM266.115 159.84C255.895 159.84 248.615 152.21 248.615 141.5C248.615 130.79 255.895 123.16 266.115 123.16C276.335 123.16 283.615 130.79 283.615 141.5C283.615 152.21 276.335 159.84 266.115 159.84ZM266.115 154.24C272.905 154.24 277.735 148.92 277.735 141.5C277.735 134.01 272.905 128.62 266.115 128.62C259.325 128.62 254.495 134.01 254.495 141.5C254.495 148.92 259.325 154.24 266.115 154.24ZM290.367 159V124H294.847L295.757 130.37C297.087 126.1 301.357 123.16 306.467 123.16C311.507 123.16 315.987 126.1 317.947 130.51C319.557 126.1 323.967 123.16 329.287 123.16C336.777 123.16 342.167 129.25 342.167 137.72V159H336.567V138C336.567 132.68 333.207 128.9 328.447 128.9C323.057 128.9 319.207 133.31 319.207 139.4V159H313.677V138C313.677 132.68 310.247 128.9 305.487 128.9C299.957 128.9 295.967 133.38 295.967 139.68V159H290.367Z" fill="black"/>
</svg>
