<svg width="191" height="12" viewBox="0 0 191 12" fill="none" xmlns="http://www.w3.org/2000/svg">
<path d="M6.15234 2.00586C6.26465 2.20605 6.25977 2.44043 6.1377 2.70898C6.02051 2.97266 5.85938 3.2168 5.6543 3.44141C5.4541 3.66113 5.28809 3.80273 5.15625 3.86621C5.15625 3.86621 5.07568 3.83203 4.91455 3.76367C4.7583 3.69531 4.56055 3.61719 4.32129 3.5293C4.08691 3.44141 3.84766 3.36816 3.60352 3.30957C3.45703 3.27539 3.30566 3.27295 3.14941 3.30225C2.99805 3.32666 2.90527 3.3877 2.87109 3.48535C2.83691 3.63184 2.854 3.75635 2.92236 3.85889C2.99072 3.95654 3.09814 4.04932 3.24463 4.13721C3.46924 4.26904 3.72803 4.40576 4.021 4.54736C4.43604 4.74268 4.84131 4.97217 5.23682 5.23584C5.63721 5.49463 5.94971 5.8291 6.17432 6.23926C6.39893 6.64453 6.45264 7.15723 6.33545 7.77734C6.18896 8.59277 5.93262 9.22021 5.56641 9.65967C5.2002 10.0942 4.77295 10.3848 4.28467 10.5312C3.80127 10.6729 3.30078 10.7119 2.7832 10.6484C2.26562 10.5801 1.77979 10.4507 1.32568 10.2603C0.876465 10.0698 0.50293 9.85742 0.205078 9.62305C0.200195 9.49609 0.212402 9.32031 0.241699 9.0957C0.270996 8.86621 0.319824 8.63428 0.388184 8.3999C0.461426 8.16064 0.559082 7.96777 0.681152 7.82129C0.803223 7.66992 0.95459 7.61377 1.13525 7.65283C1.13525 7.65283 1.2207 7.71387 1.3916 7.83594C1.56738 7.95312 1.78711 8.08252 2.05078 8.22412C2.31445 8.36084 2.58789 8.46826 2.87109 8.54639C3.15918 8.61963 3.42285 8.61963 3.66211 8.54639C3.90137 8.47314 4.07959 8.28027 4.19678 7.96777C4.29932 7.66504 4.2749 7.41357 4.12354 7.21338C3.97705 7.01318 3.75 6.84473 3.44238 6.70801C3.13965 6.57129 2.81006 6.44189 2.45361 6.31982C2.05811 6.18799 1.68945 6.04395 1.34766 5.8877C1.01074 5.72656 0.766602 5.52148 0.615234 5.27246C0.366211 4.91113 0.239258 4.45947 0.234375 3.91748C0.229492 3.37061 0.32959 2.84082 0.534668 2.32812C0.739746 1.81543 1.03027 1.4248 1.40625 1.15625C1.90918 0.838867 2.47559 0.694824 3.10547 0.724121C3.73535 0.748535 4.32861 0.885254 4.88525 1.13428C5.44189 1.37842 5.86426 1.66895 6.15234 2.00586ZM10.8032 1.28809C11.3452 1.26367 11.8799 1.271 12.4072 1.31006C12.9346 1.34424 13.3936 1.44189 13.7842 1.60303C14.1797 1.75928 14.4507 2.00586 14.5972 2.34277C14.7437 2.6748 14.7095 3.12402 14.4946 3.69043C14.2993 3.94922 14.1016 4.10059 13.9014 4.14453C13.7012 4.18848 13.501 4.1665 13.3008 4.07861C13.1006 3.99072 12.9004 3.87598 12.7002 3.73438C12.1387 3.47559 11.6528 3.40234 11.2427 3.51465C10.8374 3.62695 10.4907 3.89795 10.2026 4.32764C9.91943 4.75244 9.6875 5.3042 9.50684 5.98291C9.44824 6.32959 9.47266 6.68359 9.58008 7.04492C9.69238 7.40137 9.8584 7.69434 10.0781 7.92383C10.3027 8.15332 10.5566 8.24854 10.8398 8.20947C11.123 8.17041 11.4111 7.92871 11.7041 7.48438C11.8408 7.23047 12.0142 7.07422 12.2241 7.01562C12.4341 6.95215 12.6636 6.94971 12.9126 7.0083C13.1665 7.06201 13.4277 7.1377 13.6963 7.23535C13.96 7.33301 14.1309 7.47705 14.209 7.66748C14.2871 7.85791 14.3066 8.0459 14.2676 8.23145C14.2334 8.41699 14.1772 8.55127 14.0991 8.63428C14.0747 8.67334 14.0503 8.71484 14.0259 8.75879C13.8257 9.125 13.5913 9.45947 13.3228 9.76221C13.0542 10.0649 12.6782 10.2749 12.1948 10.3921C11.7114 10.5093 11.0474 10.4727 10.2026 10.2822C9.30908 10.0332 8.61572 9.68164 8.12256 9.22754C7.63428 8.77344 7.29736 8.27783 7.11182 7.74072C6.92627 7.20361 6.84082 6.68604 6.85547 6.18799C7.05078 5.13818 7.30713 4.30078 7.62451 3.67578C7.94189 3.0459 8.28125 2.57227 8.64258 2.25488C9.00879 1.93262 9.35791 1.71045 9.68994 1.58838C10.0269 1.46631 10.3076 1.38818 10.5322 1.354C10.6445 1.32959 10.7349 1.30762 10.8032 1.28809ZM17.6147 0.321289C18.2886 0.326172 18.8892 0.453125 19.4165 0.702148C19.9438 0.946289 20.3223 1.32227 20.5518 1.83008C20.7861 2.33789 20.7935 2.9873 20.5737 3.77832C20.3589 4.56445 19.8389 5.50195 19.0137 6.59082L21.4893 8.58301C21.5186 8.85156 21.4331 9.10547 21.2329 9.34473C21.0376 9.58398 20.7935 9.80127 20.5005 9.99658C20.2124 10.1919 19.9414 10.3579 19.6875 10.4946L17.4756 8.69287L17.8931 11.0146C17.8101 11.0537 17.6416 11.1147 17.3877 11.1978C17.1338 11.2808 16.8555 11.354 16.5527 11.4175C16.2549 11.481 15.9912 11.498 15.7617 11.4688C15.5371 11.4443 15.4102 11.3442 15.3809 11.1685C15.1758 9.7915 15.0537 8.42432 15.0146 7.06689C14.9805 5.70947 14.9731 4.35693 14.9927 3.00928C15.0024 2.30615 15.0073 1.60303 15.0073 0.899902C15.8423 0.509277 16.7114 0.316406 17.6147 0.321289ZM17.4316 2.8335C17.2656 2.82373 17.1875 2.87744 17.1973 2.99463L17.3218 4.51074C17.3511 4.68652 17.4561 4.74023 17.6367 4.67188C17.8174 4.60352 18.0005 4.47168 18.186 4.27637C18.3716 4.07617 18.4814 3.86865 18.5156 3.65381C18.5254 3.50732 18.4668 3.37305 18.3398 3.25098C18.2178 3.12891 18.0688 3.03125 17.8931 2.95801C17.7222 2.87988 17.5684 2.83838 17.4316 2.8335ZM26.4551 1.66895C26.665 1.67383 26.8799 1.69336 27.0996 1.72754C27.8076 1.82031 28.3936 2.04492 28.8574 2.40137C29.3213 2.75781 29.6704 3.19238 29.9048 3.70508C30.1392 4.21777 30.2637 4.75488 30.2783 5.31641C30.293 5.87793 30.2075 6.40771 30.022 6.90576C29.9341 7.11084 29.7729 7.37451 29.5386 7.69678C29.3042 8.01416 28.999 8.34131 28.623 8.67822C28.2471 9.01514 27.8027 9.31055 27.29 9.56445C26.7773 9.81836 26.2012 9.98438 25.5615 10.0625C24.9512 10.1748 24.3872 10.1309 23.8696 9.93066C23.3521 9.72559 22.9199 9.33252 22.5732 8.75146C22.2266 8.17041 21.9995 7.36719 21.8921 6.3418C21.8774 5.55078 22.0728 4.80127 22.478 4.09326C22.8882 3.38037 23.4399 2.79932 24.1333 2.3501C24.8315 1.90088 25.6055 1.67383 26.4551 1.66895ZM27.2974 4.54736C27.0581 4.5376 26.7236 4.68652 26.2939 4.99414C25.6201 5.60938 25.1709 6.12695 24.9463 6.54688C24.7217 6.96191 24.6851 7.24756 24.8364 7.40381C24.9878 7.55518 25.2856 7.54297 25.73 7.36719C26.1743 7.18652 26.7285 6.80811 27.3926 6.23193C27.5732 5.99268 27.6929 5.74609 27.7515 5.49219C27.8149 5.2334 27.8101 5.01367 27.7368 4.83301C27.6636 4.65234 27.5171 4.55713 27.2974 4.54736ZM30.9521 9.43994C30.8936 9.01025 30.835 8.29248 30.7764 7.28662C30.7178 6.28076 30.686 5.32129 30.6812 4.4082C30.686 4.2373 30.6885 4.02002 30.6885 3.75635C30.6934 3.30225 30.6982 2.8335 30.7031 2.3501C30.708 1.86182 30.7129 1.51025 30.7178 1.29541C30.7324 1.08057 30.8447 0.936523 31.0547 0.863281C31.2695 0.790039 31.5332 0.768066 31.8457 0.797363C32.1582 0.821777 32.4707 0.875488 32.7832 0.958496C33.1006 1.0415 33.3643 1.13428 33.5742 1.23682C33.7891 1.33936 33.9038 1.42969 33.9185 1.50781C33.9136 1.94727 33.8989 2.521 33.8745 3.229C33.8501 3.89307 33.8306 4.57178 33.8159 5.26514C33.8062 5.95361 33.8086 6.5542 33.8232 7.06689C33.8428 7.57959 33.8892 7.9043 33.9624 8.04102C34.1089 8.18262 34.3799 8.24365 34.7754 8.22412C35.1709 8.19971 35.603 8.15088 36.0718 8.07764C36.3989 8.02881 36.7041 7.98975 36.9873 7.96045C37.0947 7.96045 37.2119 8.08008 37.3389 8.31934C37.4658 8.55371 37.561 8.83691 37.6245 9.16895C37.688 9.50098 37.6782 9.80615 37.5952 10.0845C37.5122 10.3628 37.3169 10.541 37.0093 10.6191C36.0767 10.8633 34.7754 10.9829 33.1055 10.978C32.7002 10.978 32.3633 10.9292 32.0947 10.8315C31.8311 10.729 31.6211 10.6021 31.4648 10.4507C31.3086 10.2944 31.1938 10.1406 31.1206 9.98926C31.0474 9.83789 31.001 9.7085 30.9814 9.60107C30.9619 9.49365 30.9521 9.43994 30.9521 9.43994ZM38.3203 9.43994C38.2617 9.01025 38.2031 8.29248 38.1445 7.28662C38.0859 6.28076 38.0542 5.32129 38.0493 4.4082C38.0542 4.2373 38.0566 4.02002 38.0566 3.75635C38.0615 3.30225 38.0664 2.8335 38.0713 2.3501C38.0762 1.86182 38.0811 1.51025 38.0859 1.29541C38.1006 1.08057 38.2129 0.936523 38.4229 0.863281C38.6377 0.790039 38.9014 0.768066 39.2139 0.797363C39.5264 0.821777 39.8389 0.875488 40.1514 0.958496C40.4688 1.0415 40.7324 1.13428 40.9424 1.23682C41.1572 1.33936 41.272 1.42969 41.2866 1.50781C41.2817 1.94727 41.2671 2.521 41.2427 3.229C41.2183 3.89307 41.1987 4.57178 41.1841 5.26514C41.1743 5.95361 41.1768 6.5542 41.1914 7.06689C41.2109 7.57959 41.2573 7.9043 41.3306 8.04102C41.4771 8.18262 41.748 8.24365 42.1436 8.22412C42.5391 8.19971 42.9712 8.15088 43.4399 8.07764C43.7671 8.02881 44.0723 7.98975 44.3555 7.96045C44.4629 7.96045 44.5801 8.08008 44.707 8.31934C44.834 8.55371 44.9292 8.83691 44.9927 9.16895C45.0562 9.50098 45.0464 9.80615 44.9634 10.0845C44.8804 10.3628 44.6851 10.541 44.3774 10.6191C43.4448 10.8633 42.1436 10.9829 40.4736 10.978C40.0684 10.978 39.7314 10.9292 39.4629 10.8315C39.1992 10.729 38.9893 10.6021 38.833 10.4507C38.6768 10.2944 38.562 10.1406 38.4888 9.98926C38.4155 9.83789 38.3691 9.7085 38.3496 9.60107C38.3301 9.49365 38.3203 9.43994 38.3203 9.43994ZM49.1675 3.41943C49.0649 3.34619 49.0015 3.19727 48.9771 2.97266C48.9526 2.74316 48.9502 2.49658 48.9697 2.23291C48.9941 1.96436 49.021 1.73242 49.0503 1.53711C49.0845 1.33691 49.1016 1.23682 49.1016 1.23682L57.1655 0.929199C57.3462 0.978027 57.4512 1.12207 57.4805 1.36133C57.5146 1.5957 57.5098 1.85693 57.4658 2.14502C57.4268 2.42822 57.3853 2.67236 57.3413 2.87744C57.3218 2.96045 57.3096 3.02881 57.3047 3.08252L55.0854 3.14844L54.6826 10.0405C54.6729 10.1187 54.5557 10.209 54.3311 10.3115C54.1064 10.4092 53.8452 10.4922 53.5474 10.5605C53.2495 10.624 52.9858 10.6436 52.7563 10.6191C52.5269 10.5898 52.4048 10.4873 52.3901 10.3115L52.1265 3.35352L49.1675 3.41943ZM61.5527 1.66895C61.7627 1.67383 61.9775 1.69336 62.1973 1.72754C62.9053 1.82031 63.4912 2.04492 63.9551 2.40137C64.4189 2.75781 64.7681 3.19238 65.0024 3.70508C65.2368 4.21777 65.3613 4.75488 65.376 5.31641C65.3906 5.87793 65.3052 6.40771 65.1196 6.90576C65.0317 7.11084 64.8706 7.37451 64.6362 7.69678C64.4019 8.01416 64.0967 8.34131 63.7207 8.67822C63.3447 9.01514 62.9004 9.31055 62.3877 9.56445C61.875 9.81836 61.2988 9.98438 60.6592 10.0625C60.0488 10.1748 59.4849 10.1309 58.9673 9.93066C58.4497 9.72559 58.0176 9.33252 57.6709 8.75146C57.3242 8.17041 57.0972 7.36719 56.9897 6.3418C56.9751 5.55078 57.1704 4.80127 57.5757 4.09326C57.9858 3.38037 58.5376 2.79932 59.231 2.3501C59.9292 1.90088 60.7031 1.67383 61.5527 1.66895ZM62.395 4.54736C62.1558 4.5376 61.8213 4.68652 61.3916 4.99414C60.7178 5.60938 60.2686 6.12695 60.0439 6.54688C59.8193 6.96191 59.7827 7.24756 59.9341 7.40381C60.0854 7.55518 60.3833 7.54297 60.8276 7.36719C61.272 7.18652 61.8262 6.80811 62.4902 6.23193C62.6709 5.99268 62.7905 5.74609 62.8491 5.49219C62.9126 5.2334 62.9077 5.01367 62.8345 4.83301C62.7612 4.65234 62.6147 4.55713 62.395 4.54736ZM75.4688 2.00586C75.5811 2.20605 75.5762 2.44043 75.4541 2.70898C75.3369 2.97266 75.1758 3.2168 74.9707 3.44141C74.7705 3.66113 74.6045 3.80273 74.4727 3.86621C74.4727 3.86621 74.3921 3.83203 74.231 3.76367C74.0747 3.69531 73.877 3.61719 73.6377 3.5293C73.4033 3.44141 73.1641 3.36816 72.9199 3.30957C72.7734 3.27539 72.6221 3.27295 72.4658 3.30225C72.3145 3.32666 72.2217 3.3877 72.1875 3.48535C72.1533 3.63184 72.1704 3.75635 72.2388 3.85889C72.3071 3.95654 72.4146 4.04932 72.561 4.13721C72.7856 4.26904 73.0444 4.40576 73.3374 4.54736C73.7524 4.74268 74.1577 4.97217 74.5532 5.23584C74.9536 5.49463 75.2661 5.8291 75.4907 6.23926C75.7153 6.64453 75.769 7.15723 75.6519 7.77734C75.5054 8.59277 75.249 9.22021 74.8828 9.65967C74.5166 10.0942 74.0894 10.3848 73.6011 10.5312C73.1177 10.6729 72.6172 10.7119 72.0996 10.6484C71.582 10.5801 71.0962 10.4507 70.6421 10.2603C70.1929 10.0698 69.8193 9.85742 69.5215 9.62305C69.5166 9.49609 69.5288 9.32031 69.5581 9.0957C69.5874 8.86621 69.6362 8.63428 69.7046 8.3999C69.7778 8.16064 69.8755 7.96777 69.9976 7.82129C70.1196 7.66992 70.271 7.61377 70.4517 7.65283C70.4517 7.65283 70.5371 7.71387 70.708 7.83594C70.8838 7.95312 71.1035 8.08252 71.3672 8.22412C71.6309 8.36084 71.9043 8.46826 72.1875 8.54639C72.4756 8.61963 72.7393 8.61963 72.9785 8.54639C73.2178 8.47314 73.396 8.28027 73.5132 7.96777C73.6157 7.66504 73.5913 7.41357 73.4399 7.21338C73.2935 7.01318 73.0664 6.84473 72.7588 6.70801C72.4561 6.57129 72.1265 6.44189 71.77 6.31982C71.3745 6.18799 71.0059 6.04395 70.6641 5.8877C70.3271 5.72656 70.083 5.52148 69.9316 5.27246C69.6826 4.91113 69.5557 4.45947 69.5508 3.91748C69.5459 3.37061 69.646 2.84082 69.8511 2.32812C70.0562 1.81543 70.3467 1.4248 70.7227 1.15625C71.2256 0.838867 71.792 0.694824 72.4219 0.724121C73.0518 0.748535 73.645 0.885254 74.2017 1.13428C74.7583 1.37842 75.1807 1.66895 75.4688 2.00586ZM76.9629 1.23682C77.666 1.23193 78.374 1.20996 79.0869 1.1709C79.8047 1.13184 80.3223 1.11963 80.6396 1.13428C80.9277 1.16846 81.1182 1.30029 81.2109 1.52979C81.3086 1.75439 81.3403 2.01318 81.3062 2.30615C81.2769 2.59912 81.2134 2.86523 81.1157 3.10449C81.0229 3.33887 80.9326 3.48535 80.8447 3.54395C80.5664 3.59277 80.2734 3.61475 79.9658 3.60986C79.6631 3.60498 79.3994 3.59277 79.1748 3.57324C78.9551 3.54883 78.8452 3.53662 78.8452 3.53662V4.86963C78.8452 4.86963 78.9233 4.86963 79.0796 4.86963C79.2358 4.86475 79.4214 4.86719 79.6362 4.87695C79.8511 4.88672 80.0562 4.91113 80.2515 4.9502C80.5054 5.33105 80.6519 5.68262 80.6909 6.00488C80.7349 6.32715 80.7056 6.58838 80.603 6.78857C80.5054 6.98877 80.3711 7.09619 80.2002 7.11084C79.7998 7.11084 79.4653 7.11328 79.1968 7.11816C78.9282 7.11816 78.7939 7.11816 78.7939 7.11816V8.3999C79.668 8.35596 80.4199 8.34131 81.0498 8.35596C81.3477 8.37549 81.5332 8.49756 81.6064 8.72217C81.6797 8.94189 81.6846 9.1958 81.6211 9.48389C81.5576 9.76709 81.4673 10.0137 81.3501 10.2236C81.2378 10.4336 81.145 10.5386 81.0718 10.5386C80.8423 10.5435 80.6104 10.5508 80.376 10.5605C79.8291 10.5801 79.2822 10.5923 78.7354 10.5972C78.1934 10.5972 77.666 10.5654 77.1533 10.502C77.0459 10.5068 76.9409 10.3823 76.8384 10.1284C76.7358 9.86963 76.6382 9.52051 76.5454 9.08105C76.4526 8.6416 76.3721 8.14844 76.3037 7.60156C76.2354 7.0498 76.1816 6.48096 76.1426 5.89502C76.1084 5.30908 76.0938 4.74023 76.0986 4.18848C76.1084 3.63672 76.1426 3.13867 76.2012 2.69434C76.2646 2.25 76.3574 1.896 76.4795 1.63232C76.6016 1.36865 76.7627 1.23682 76.9629 1.23682ZM82.9541 1.23682C83.6572 1.23193 84.3652 1.20996 85.0781 1.1709C85.7959 1.13184 86.3135 1.11963 86.6309 1.13428C86.9189 1.16846 87.1094 1.30029 87.2021 1.52979C87.2998 1.75439 87.3315 2.01318 87.2974 2.30615C87.2681 2.59912 87.2046 2.86523 87.1069 3.10449C87.0142 3.33887 86.9238 3.48535 86.8359 3.54395C86.5576 3.59277 86.2646 3.61475 85.957 3.60986C85.6543 3.60498 85.3906 3.59277 85.166 3.57324C84.9463 3.54883 84.8364 3.53662 84.8364 3.53662V4.86963C84.8364 4.86963 84.9146 4.86963 85.0708 4.86963C85.2271 4.86475 85.4126 4.86719 85.6274 4.87695C85.8423 4.88672 86.0474 4.91113 86.2427 4.9502C86.4966 5.33105 86.6431 5.68262 86.6821 6.00488C86.7261 6.32715 86.6968 6.58838 86.5942 6.78857C86.4966 6.98877 86.3623 7.09619 86.1914 7.11084C85.791 7.11084 85.4565 7.11328 85.188 7.11816C84.9194 7.11816 84.7852 7.11816 84.7852 7.11816V8.3999C85.6592 8.35596 86.4111 8.34131 87.041 8.35596C87.3389 8.37549 87.5244 8.49756 87.5977 8.72217C87.6709 8.94189 87.6758 9.1958 87.6123 9.48389C87.5488 9.76709 87.4585 10.0137 87.3413 10.2236C87.229 10.4336 87.1362 10.5386 87.063 10.5386C86.8335 10.5435 86.6016 10.5508 86.3672 10.5605C85.8203 10.5801 85.2734 10.5923 84.7266 10.5972C84.1846 10.5972 83.6572 10.5654 83.1445 10.502C83.0371 10.5068 82.9321 10.3823 82.8296 10.1284C82.7271 9.86963 82.6294 9.52051 82.5366 9.08105C82.4438 8.6416 82.3633 8.14844 82.2949 7.60156C82.2266 7.0498 82.1729 6.48096 82.1338 5.89502C82.0996 5.30908 82.085 4.74023 82.0898 4.18848C82.0996 3.63672 82.1338 3.13867 82.1924 2.69434C82.2559 2.25 82.3486 1.896 82.4707 1.63232C82.5928 1.36865 82.7539 1.23682 82.9541 1.23682ZM91.8091 3.41943C91.7065 3.34619 91.6431 3.19727 91.6187 2.97266C91.5942 2.74316 91.5918 2.49658 91.6113 2.23291C91.6357 1.96436 91.6626 1.73242 91.6919 1.53711C91.7261 1.33691 91.7432 1.23682 91.7432 1.23682L99.8071 0.929199C99.9878 0.978027 100.093 1.12207 100.122 1.36133C100.156 1.5957 100.151 1.85693 100.107 2.14502C100.068 2.42822 100.027 2.67236 99.9829 2.87744C99.9634 2.96045 99.9512 3.02881 99.9463 3.08252L97.7271 3.14844L97.3242 10.0405C97.3145 10.1187 97.1973 10.209 96.9727 10.3115C96.748 10.4092 96.4868 10.4922 96.189 10.5605C95.8911 10.624 95.6274 10.6436 95.3979 10.6191C95.1685 10.5898 95.0464 10.4873 95.0317 10.3115L94.7681 3.35352L91.8091 3.41943ZM100.679 1.47119C100.713 1.07568 100.881 0.831543 101.184 0.73877C101.492 0.641113 101.838 0.63623 102.224 0.724121C102.615 0.812012 102.954 0.934082 103.242 1.09033C103.535 1.24658 103.684 1.37842 103.689 1.48584L103.806 4.24707C103.806 4.24707 103.828 4.29102 103.872 4.37891C103.921 4.46191 103.989 4.55957 104.077 4.67188C104.165 4.7793 104.265 4.87207 104.377 4.9502C104.495 5.02832 104.619 5.0625 104.751 5.05273C104.858 5.04297 104.941 5.00879 105 4.9502C105.063 4.88672 105.11 4.81348 105.139 4.73047C105.173 4.64258 105.193 4.55713 105.198 4.47412C105.208 4.39111 105.21 4.32275 105.205 4.26904C105.205 4.21045 105.205 4.18115 105.205 4.18115L105.154 1.50781C105.168 1.39062 105.303 1.271 105.557 1.14893C105.815 1.02686 106.116 0.936523 106.458 0.87793C106.799 0.819336 107.104 0.831543 107.373 0.914551C107.642 0.997559 107.793 1.18311 107.827 1.47119C108.003 2.75537 108.135 4.15918 108.223 5.68262C108.311 7.20605 108.364 8.60986 108.384 9.89404C108.379 9.99658 108.237 10.126 107.959 10.2822C107.686 10.4336 107.358 10.5581 106.978 10.6558C106.602 10.7485 106.257 10.7607 105.945 10.6924C105.637 10.6191 105.447 10.4141 105.374 10.0771L105.308 8.38525C105.303 8.21924 105.259 8.04346 105.176 7.85791C105.098 7.67236 104.973 7.57227 104.802 7.55762C104.612 7.57227 104.412 7.66748 104.202 7.84326C103.992 8.01416 103.887 8.19482 103.887 8.38525L103.975 10.2676C103.979 10.5117 103.845 10.6851 103.572 10.7876C103.298 10.8853 102.976 10.9292 102.605 10.9194C102.234 10.9048 101.902 10.8535 101.609 10.7656C101.321 10.6729 101.162 10.563 101.133 10.436C100.962 9.01025 100.835 7.49414 100.752 5.8877C100.669 4.27637 100.645 2.8042 100.679 1.47119ZM109.731 1.23682C110.435 1.23193 111.143 1.20996 111.855 1.1709C112.573 1.13184 113.091 1.11963 113.408 1.13428C113.696 1.16846 113.887 1.30029 113.979 1.52979C114.077 1.75439 114.109 2.01318 114.075 2.30615C114.045 2.59912 113.982 2.86523 113.884 3.10449C113.792 3.33887 113.701 3.48535 113.613 3.54395C113.335 3.59277 113.042 3.61475 112.734 3.60986C112.432 3.60498 112.168 3.59277 111.943 3.57324C111.724 3.54883 111.614 3.53662 111.614 3.53662V4.86963C111.614 4.86963 111.692 4.86963 111.848 4.86963C112.004 4.86475 112.19 4.86719 112.405 4.87695C112.62 4.88672 112.825 4.91113 113.02 4.9502C113.274 5.33105 113.42 5.68262 113.459 6.00488C113.503 6.32715 113.474 6.58838 113.372 6.78857C113.274 6.98877 113.14 7.09619 112.969 7.11084C112.568 7.11084 112.234 7.11328 111.965 7.11816C111.697 7.11816 111.562 7.11816 111.562 7.11816V8.3999C112.437 8.35596 113.188 8.34131 113.818 8.35596C114.116 8.37549 114.302 8.49756 114.375 8.72217C114.448 8.94189 114.453 9.1958 114.39 9.48389C114.326 9.76709 114.236 10.0137 114.119 10.2236C114.006 10.4336 113.914 10.5386 113.84 10.5386C113.611 10.5435 113.379 10.5508 113.145 10.5605C112.598 10.5801 112.051 10.5923 111.504 10.5972C110.962 10.5972 110.435 10.5654 109.922 10.502C109.814 10.5068 109.709 10.3823 109.607 10.1284C109.504 9.86963 109.407 9.52051 109.314 9.08105C109.221 8.6416 109.141 8.14844 109.072 7.60156C109.004 7.0498 108.95 6.48096 108.911 5.89502C108.877 5.30908 108.862 4.74023 108.867 4.18848C108.877 3.63672 108.911 3.13867 108.97 2.69434C109.033 2.25 109.126 1.896 109.248 1.63232C109.37 1.36865 109.531 1.23682 109.731 1.23682ZM122.6 1.28809C123.142 1.26367 123.677 1.271 124.204 1.31006C124.731 1.34424 125.19 1.44189 125.581 1.60303C125.977 1.75928 126.248 2.00586 126.394 2.34277C126.541 2.6748 126.506 3.12402 126.292 3.69043C126.096 3.94922 125.898 4.10059 125.698 4.14453C125.498 4.18848 125.298 4.1665 125.098 4.07861C124.897 3.99072 124.697 3.87598 124.497 3.73438C123.936 3.47559 123.45 3.40234 123.04 3.51465C122.634 3.62695 122.288 3.89795 122 4.32764C121.716 4.75244 121.484 5.3042 121.304 5.98291C121.245 6.32959 121.27 6.68359 121.377 7.04492C121.489 7.40137 121.655 7.69434 121.875 7.92383C122.1 8.15332 122.354 8.24854 122.637 8.20947C122.92 8.17041 123.208 7.92871 123.501 7.48438C123.638 7.23047 123.811 7.07422 124.021 7.01562C124.231 6.95215 124.46 6.94971 124.709 7.0083C124.963 7.06201 125.225 7.1377 125.493 7.23535C125.757 7.33301 125.928 7.47705 126.006 7.66748C126.084 7.85791 126.104 8.0459 126.064 8.23145C126.03 8.41699 125.974 8.55127 125.896 8.63428C125.872 8.67334 125.847 8.71484 125.823 8.75879C125.623 9.125 125.388 9.45947 125.12 9.76221C124.851 10.0649 124.475 10.2749 123.992 10.3921C123.508 10.5093 122.844 10.4727 122 10.2822C121.106 10.0332 120.413 9.68164 119.919 9.22754C119.431 8.77344 119.094 8.27783 118.909 7.74072C118.723 7.20361 118.638 6.68604 118.652 6.18799C118.848 5.13818 119.104 4.30078 119.421 3.67578C119.739 3.0459 120.078 2.57227 120.439 2.25488C120.806 1.93262 121.155 1.71045 121.487 1.58838C121.824 1.46631 122.104 1.38818 122.329 1.354C122.441 1.32959 122.532 1.30762 122.6 1.28809ZM129.412 0.321289C130.085 0.326172 130.686 0.453125 131.213 0.702148C131.741 0.946289 132.119 1.32227 132.349 1.83008C132.583 2.33789 132.59 2.9873 132.371 3.77832C132.156 4.56445 131.636 5.50195 130.811 6.59082L133.286 8.58301C133.315 8.85156 133.23 9.10547 133.03 9.34473C132.834 9.58398 132.59 9.80127 132.297 9.99658C132.009 10.1919 131.738 10.3579 131.484 10.4946L129.272 8.69287L129.69 11.0146C129.607 11.0537 129.438 11.1147 129.185 11.1978C128.931 11.2808 128.652 11.354 128.35 11.4175C128.052 11.481 127.788 11.498 127.559 11.4688C127.334 11.4443 127.207 11.3442 127.178 11.1685C126.973 9.7915 126.851 8.42432 126.812 7.06689C126.777 5.70947 126.77 4.35693 126.79 3.00928C126.799 2.30615 126.804 1.60303 126.804 0.899902C127.639 0.509277 128.508 0.316406 129.412 0.321289ZM129.229 2.8335C129.062 2.82373 128.984 2.87744 128.994 2.99463L129.119 4.51074C129.148 4.68652 129.253 4.74023 129.434 4.67188C129.614 4.60352 129.797 4.47168 129.983 4.27637C130.168 4.07617 130.278 3.86865 130.312 3.65381C130.322 3.50732 130.264 3.37305 130.137 3.25098C130.015 3.12891 129.866 3.03125 129.69 2.95801C129.519 2.87988 129.365 2.83838 129.229 2.8335ZM134.604 1.23682C135.308 1.23193 136.016 1.20996 136.729 1.1709C137.446 1.13184 137.964 1.11963 138.281 1.13428C138.569 1.16846 138.76 1.30029 138.853 1.52979C138.95 1.75439 138.982 2.01318 138.948 2.30615C138.918 2.59912 138.855 2.86523 138.757 3.10449C138.665 3.33887 138.574 3.48535 138.486 3.54395C138.208 3.59277 137.915 3.61475 137.607 3.60986C137.305 3.60498 137.041 3.59277 136.816 3.57324C136.597 3.54883 136.487 3.53662 136.487 3.53662V4.86963C136.487 4.86963 136.565 4.86963 136.721 4.86963C136.877 4.86475 137.063 4.86719 137.278 4.87695C137.493 4.88672 137.698 4.91113 137.893 4.9502C138.147 5.33105 138.293 5.68262 138.333 6.00488C138.376 6.32715 138.347 6.58838 138.245 6.78857C138.147 6.98877 138.013 7.09619 137.842 7.11084C137.441 7.11084 137.107 7.11328 136.838 7.11816C136.57 7.11816 136.436 7.11816 136.436 7.11816V8.3999C137.31 8.35596 138.062 8.34131 138.691 8.35596C138.989 8.37549 139.175 8.49756 139.248 8.72217C139.321 8.94189 139.326 9.1958 139.263 9.48389C139.199 9.76709 139.109 10.0137 138.992 10.2236C138.879 10.4336 138.787 10.5386 138.713 10.5386C138.484 10.5435 138.252 10.5508 138.018 10.5605C137.471 10.5801 136.924 10.5923 136.377 10.5972C135.835 10.5972 135.308 10.5654 134.795 10.502C134.688 10.5068 134.583 10.3823 134.48 10.1284C134.377 9.86963 134.28 9.52051 134.187 9.08105C134.094 8.6416 134.014 8.14844 133.945 7.60156C133.877 7.0498 133.823 6.48096 133.784 5.89502C133.75 5.30908 133.735 4.74023 133.74 4.18848C133.75 3.63672 133.784 3.13867 133.843 2.69434C133.906 2.25 133.999 1.896 134.121 1.63232C134.243 1.36865 134.404 1.23682 134.604 1.23682ZM143.489 0.724121C143.757 0.724121 143.989 0.760742 144.185 0.833984C144.385 0.902344 144.514 1.00977 144.573 1.15625C144.89 1.99121 145.205 2.90674 145.518 3.90283C145.835 4.89404 146.143 5.89746 146.44 6.91309C146.733 7.88477 147.017 8.80518 147.29 9.67432C147.319 9.75732 147.246 9.87695 147.07 10.0332C146.899 10.1895 146.672 10.3433 146.389 10.4946C146.106 10.646 145.813 10.7583 145.51 10.8315C145.208 10.8999 144.939 10.8926 144.705 10.8096C144.47 10.7217 144.319 10.519 144.25 10.2017L143.928 8.37061C143.928 8.37061 143.918 8.31445 143.899 8.20215C143.879 8.08984 143.845 7.96289 143.796 7.82129C143.752 7.6748 143.694 7.54785 143.621 7.44043C143.547 7.33301 143.459 7.27686 143.357 7.27197C143.25 7.28174 143.159 7.34521 143.086 7.4624C143.013 7.57959 142.954 7.71631 142.91 7.87256C142.866 8.02393 142.834 8.16064 142.815 8.28271C142.795 8.40479 142.786 8.46582 142.786 8.46582L142.544 10.1138C142.476 10.4946 142.285 10.729 141.973 10.8169C141.66 10.9048 141.313 10.9023 140.933 10.8096C140.557 10.7168 140.234 10.5923 139.966 10.436C139.702 10.2749 139.58 10.1357 139.6 10.0186C139.907 8.83691 140.2 7.62109 140.479 6.37109C140.669 5.50684 140.864 4.65967 141.064 3.82959C141.27 2.99463 141.487 2.20361 141.716 1.45654C141.79 1.22217 142.002 1.0415 142.354 0.914551C142.71 0.782715 143.088 0.719238 143.489 0.724121ZM143.401 3.71973C143.396 3.71973 143.389 3.71973 143.379 3.71973C143.271 3.73438 143.186 3.79541 143.123 3.90283C143.064 4.01025 143.02 4.13965 142.991 4.29102C142.961 4.44238 142.942 4.59619 142.932 4.75244C142.922 4.90381 142.917 5.03076 142.917 5.1333C142.922 5.23584 142.925 5.28711 142.925 5.28711L143.877 5.25049C143.877 5.25049 143.877 5.19922 143.877 5.09668C143.877 4.99414 143.87 4.86719 143.855 4.71582C143.845 4.56445 143.823 4.41309 143.789 4.26172C143.76 4.11035 143.713 3.9834 143.65 3.88086C143.586 3.77832 143.503 3.72461 143.401 3.71973ZM146.58 3.41943C146.477 3.34619 146.414 3.19727 146.389 2.97266C146.365 2.74316 146.362 2.49658 146.382 2.23291C146.406 1.96436 146.433 1.73242 146.462 1.53711C146.497 1.33691 146.514 1.23682 146.514 1.23682L154.578 0.929199C154.758 0.978027 154.863 1.12207 154.893 1.36133C154.927 1.5957 154.922 1.85693 154.878 2.14502C154.839 2.42822 154.797 2.67236 154.753 2.87744C154.734 2.96045 154.722 3.02881 154.717 3.08252L152.498 3.14844L152.095 10.0405C152.085 10.1187 151.968 10.209 151.743 10.3115C151.519 10.4092 151.257 10.4922 150.959 10.5605C150.662 10.624 150.398 10.6436 150.168 10.6191C149.939 10.5898 149.817 10.4873 149.802 10.3115L149.539 3.35352L146.58 3.41943ZM155.354 2.44531C155.388 2.11328 155.562 1.85205 155.874 1.66162C156.187 1.46631 156.543 1.35889 156.943 1.33936C157.344 1.31982 157.693 1.40039 157.991 1.58105C158.289 1.76172 158.44 2.05957 158.445 2.47461L158.481 4.36426C158.481 4.50586 158.481 4.65723 158.481 4.81836C158.477 5.25781 158.477 5.73389 158.481 6.24658C158.491 6.75439 158.518 7.25 158.562 7.7334L158.65 9.26416C158.655 9.47412 158.528 9.66455 158.269 9.83545C158.015 10.0015 157.708 10.1064 157.346 10.1504C156.99 10.1943 156.66 10.1333 156.357 9.96729C156.06 9.79639 155.869 9.479 155.786 9.01514C155.62 7.88721 155.496 6.77637 155.413 5.68262C155.334 4.58398 155.315 3.50488 155.354 2.44531ZM159.075 1.88135C158.987 1.5542 159.062 1.31006 159.302 1.14893C159.546 0.98291 159.858 0.880371 160.239 0.841309C160.62 0.802246 160.969 0.80957 161.287 0.863281C161.604 0.912109 161.794 0.987793 161.858 1.09033L163.015 5.60205C163.015 5.60205 163.027 5.66797 163.052 5.7998C163.076 5.92676 163.115 6.07568 163.169 6.24658C163.228 6.4126 163.303 6.55908 163.396 6.68604C163.494 6.81299 163.611 6.87891 163.748 6.88379C163.879 6.87891 163.997 6.80811 164.099 6.67139C164.207 6.53467 164.297 6.37598 164.37 6.19531C164.443 6.01465 164.497 5.85352 164.531 5.71191C164.57 5.57031 164.59 5.49951 164.59 5.49951L165.769 1.26611C165.813 1.16846 165.972 1.09521 166.245 1.04639C166.519 0.997559 166.838 0.985352 167.205 1.00977C167.576 1.0293 167.927 1.09277 168.259 1.2002C168.591 1.30762 168.838 1.46875 168.999 1.68359C169.16 1.89355 169.165 2.16699 169.014 2.50391C168.672 3.6709 168.225 4.83301 167.673 5.99023C167.122 7.14258 166.501 8.29004 165.813 9.43262C165.52 9.8623 165.154 10.2041 164.714 10.458C164.28 10.7119 163.833 10.8169 163.374 10.7729C162.915 10.6948 162.522 10.5093 162.195 10.2163C161.868 9.91846 161.646 9.61816 161.528 9.31543C161.494 9.23242 161.355 8.81982 161.111 8.07764C160.867 7.33057 160.586 6.48096 160.269 5.52881C159.956 4.57178 159.678 3.72461 159.434 2.9873C159.194 2.25 159.075 1.88135 159.075 1.88135ZM169.548 2.44531C169.583 2.11328 169.756 1.85205 170.068 1.66162C170.381 1.46631 170.737 1.35889 171.138 1.33936C171.538 1.31982 171.887 1.40039 172.185 1.58105C172.483 1.76172 172.634 2.05957 172.639 2.47461L172.676 4.36426C172.676 4.50586 172.676 4.65723 172.676 4.81836C172.671 5.25781 172.671 5.73389 172.676 6.24658C172.686 6.75439 172.712 7.25 172.756 7.7334L172.844 9.26416C172.849 9.47412 172.722 9.66455 172.463 9.83545C172.209 10.0015 171.902 10.1064 171.541 10.1504C171.184 10.1943 170.854 10.1333 170.552 9.96729C170.254 9.79639 170.063 9.479 169.98 9.01514C169.814 7.88721 169.69 6.77637 169.607 5.68262C169.529 4.58398 169.509 3.50488 169.548 2.44531ZM173.313 3.41943C173.21 3.34619 173.147 3.19727 173.123 2.97266C173.098 2.74316 173.096 2.49658 173.115 2.23291C173.14 1.96436 173.167 1.73242 173.196 1.53711C173.23 1.33691 173.247 1.23682 173.247 1.23682L181.311 0.929199C181.492 0.978027 181.597 1.12207 181.626 1.36133C181.66 1.5957 181.655 1.85693 181.611 2.14502C181.572 2.42822 181.531 2.67236 181.487 2.87744C181.467 2.96045 181.455 3.02881 181.45 3.08252L179.231 3.14844L178.828 10.0405C178.818 10.1187 178.701 10.209 178.477 10.3115C178.252 10.4092 177.991 10.4922 177.693 10.5605C177.395 10.624 177.131 10.6436 176.902 10.6191C176.672 10.5898 176.55 10.4873 176.536 10.3115L176.272 3.35352L173.313 3.41943ZM182.065 2.40869C181.953 2.12549 182.009 1.85938 182.234 1.61035C182.463 1.36133 182.769 1.16113 183.149 1.00977C183.535 0.858398 183.901 0.790039 184.248 0.804688C184.6 0.819336 184.844 0.946289 184.98 1.18555L185.662 2.51123C185.662 2.51123 185.686 2.55762 185.735 2.65039C185.789 2.73828 185.857 2.84326 185.94 2.96533C186.023 3.08252 186.113 3.18506 186.211 3.27295C186.313 3.36084 186.416 3.40723 186.519 3.41211C186.616 3.40723 186.709 3.36084 186.797 3.27295C186.89 3.18506 186.973 3.08252 187.046 2.96533C187.124 2.84814 187.183 2.74561 187.222 2.65771C187.266 2.56494 187.288 2.51855 187.288 2.51855L187.969 0.973145C188.032 0.768066 188.171 0.655762 188.386 0.63623C188.601 0.611816 188.848 0.65332 189.126 0.760742C189.409 0.863281 189.675 1.00244 189.924 1.17822C190.173 1.354 190.361 1.53955 190.488 1.73486C190.62 1.93018 190.645 2.10596 190.562 2.26221C190.361 2.59424 190.129 2.91895 189.866 3.23633C189.602 3.55371 189.338 3.85645 189.075 4.14453C188.733 4.51562 188.44 4.8623 188.196 5.18457C187.952 5.50195 187.812 5.79004 187.778 6.04883C187.729 6.56152 187.681 7.22559 187.632 8.04102C187.588 8.81738 187.539 9.50586 187.485 10.1064C187.461 10.292 187.38 10.4336 187.244 10.5312C187.112 10.6289 186.958 10.6997 186.782 10.7437C186.611 10.7827 186.458 10.8096 186.321 10.8242C186.14 10.8486 185.942 10.8486 185.728 10.8242C185.513 10.7998 185.325 10.7363 185.164 10.6338C185.002 10.5264 184.915 10.3701 184.9 10.165C184.885 9.70605 184.863 9.1665 184.834 8.54639C184.785 7.56982 184.753 6.72754 184.739 6.01953C184.724 5.7168 184.59 5.4043 184.336 5.08203C184.087 4.75977 183.789 4.42529 183.442 4.07861C183.184 3.82471 182.932 3.55859 182.688 3.28027C182.449 3.00195 182.241 2.71143 182.065 2.40869Z" fill="white"/>
</svg>
