<svg width="584" height="192" viewBox="0 0 584 192" fill="none" xmlns="http://www.w3.org/2000/svg">
<path d="M3.16548 0.239999H65.3255L62.5955 12.945H38.7605L25.4255 75H11.1455L24.3755 12.945H0.435477L3.16548 0.239999ZM94.5754 19.98C95.6954 19.98 96.7454 20.05 97.7254 20.19L95.2054 32.37H91.8454C81.6254 32.37 75.3954 37.06 73.1554 46.44L67.0654 75H53.8354L65.3854 20.82H78.1954L76.4104 29.115C81.0304 23.025 87.0854 19.98 94.5754 19.98ZM128.874 19.56C137.204 19.56 142.979 21.17 146.199 24.39C149.489 27.61 150.434 32.58 149.034 39.3L143.574 64.71C142.524 69.47 142.524 72.9 143.574 75H130.344C129.854 73.88 129.784 71.885 130.134 69.015C125.584 73.845 119.634 76.26 112.284 76.26C106.054 76.26 101.399 74.685 98.3193 71.535C95.2393 68.385 94.2943 64.045 95.4843 58.515C96.3943 53.965 98.7043 50.465 102.414 48.015C106.124 45.495 111.689 43.885 119.109 43.185L127.824 42.345C130.624 42.065 132.689 41.505 134.019 40.665C135.419 39.825 136.329 38.495 136.749 36.675C137.169 34.225 136.679 32.405 135.279 31.215C133.949 30.025 131.534 29.43 128.034 29.43C124.114 29.43 121.209 30.06 119.319 31.32C117.429 32.51 116.064 34.75 115.224 38.04H102.204C103.674 31.88 106.544 27.26 110.814 24.18C115.154 21.1 121.174 19.56 128.874 19.56ZM116.274 66.81C120.124 66.81 123.624 65.69 126.774 63.45C129.924 61.21 131.989 58.06 132.969 54L134.229 48.54C132.479 49.73 130.029 50.5 126.879 50.85L120.159 51.585C113.439 52.355 109.659 54.84 108.819 59.04C108.259 61.49 108.609 63.415 109.869 64.815C111.199 66.145 113.334 66.81 116.274 66.81ZM191.745 35.31L200.145 20.82H214.215L182.61 75H167.28L158.775 20.82H172.635L174.84 36.885C175.89 47.105 176.73 55.855 177.36 63.135C180.51 56.765 185.305 47.49 191.745 35.31ZM269.464 48.855V52.005H228.934C229.424 56.625 230.859 60.125 233.239 62.505C235.689 64.815 238.944 65.97 243.004 65.97C249.024 65.97 253.154 63.38 255.394 58.2H268.099C266.699 63.73 263.759 68.14 259.279 71.43C254.799 74.65 249.339 76.26 242.899 76.26C234.849 76.26 228.339 73.67 223.369 68.49C218.399 63.31 215.914 56.45 215.914 47.91C215.914 39.37 218.364 32.51 223.264 27.33C228.234 22.15 234.709 19.56 242.689 19.56C250.879 19.56 257.389 22.255 262.219 27.645C267.049 33.035 269.464 40.105 269.464 48.855ZM242.584 29.85C234.814 29.85 230.299 34.155 229.039 42.765H256.234C255.674 38.775 254.204 35.625 251.824 33.315C249.444 31.005 246.364 29.85 242.584 29.85ZM295.436 75H282.206V0.239999H295.436V75ZM308.933 75V59.985H324.368V76.155C324.368 86.025 319.853 91.135 310.823 91.485H308.933V83.925L310.718 83.82C313.938 83.61 315.548 81.265 315.548 76.785V75H308.933ZM385.127 35.835L397.622 0.239999H418.202V75H404.657V52.215C404.657 38.215 404.797 25.86 405.077 15.15C403.537 20.4 401.647 26.14 399.407 32.37L384.287 75H372.632L357.407 32.37C354.747 24.6 352.892 18.93 351.842 15.36C352.122 26 352.262 38.285 352.262 52.215V75H338.612V0.239999H359.192L372.107 36.57C372.947 39.02 375.082 45.775 378.512 56.835C380.752 49.065 382.957 42.065 385.127 35.835ZM458.627 19.56C467.167 19.56 473.467 22.29 477.527 27.75C481.587 33.14 482.602 40.175 480.572 48.855L479.627 52.005H439.307C438.887 56.625 439.692 60.125 441.722 62.505C443.752 64.815 446.762 65.97 450.752 65.97C457.192 65.97 461.777 63.38 464.507 58.2H477.317C472.627 70.24 463.387 76.26 449.597 76.26C441.197 76.26 434.967 73.53 430.907 68.07C426.707 62.75 425.622 55.33 427.652 45.81C429.332 37.83 432.972 31.46 438.572 26.7C444.172 21.94 450.857 19.56 458.627 19.56ZM457.472 29.85C453.762 29.85 450.472 30.97 447.602 33.21C444.802 35.38 442.667 38.565 441.197 42.765H468.602C468.952 38.775 468.147 35.625 466.187 33.315C464.227 31.005 461.322 29.85 457.472 29.85ZM520.302 19.56C528.842 19.56 535.142 22.29 539.202 27.75C543.262 33.14 544.277 40.175 542.247 48.855L541.302 52.005H500.982C500.562 56.625 501.367 60.125 503.397 62.505C505.427 64.815 508.437 65.97 512.427 65.97C518.867 65.97 523.452 63.38 526.182 58.2H538.992C534.302 70.24 525.062 76.26 511.272 76.26C502.872 76.26 496.642 73.53 492.582 68.07C488.382 62.75 487.297 55.33 489.327 45.81C491.007 37.83 494.647 31.46 500.247 26.7C505.847 21.94 512.532 19.56 520.302 19.56ZM519.147 29.85C515.437 29.85 512.147 30.97 509.277 33.21C506.477 35.38 504.342 38.565 502.872 42.765H530.277C530.627 38.775 529.822 35.625 527.862 33.315C525.902 31.005 522.997 29.85 519.147 29.85ZM583.447 20.82V30.9H572.737V60.195C572.737 61.945 573.192 63.17 574.102 63.87C575.082 64.57 576.692 64.92 578.932 64.92H583.447V75C580.577 75.28 578.267 75.42 576.517 75.42C570.637 75.42 566.332 74.335 563.602 72.165C560.942 69.925 559.612 66.39 559.612 61.56V30.9H551.212V20.82H559.612V5.07H572.737V20.82H583.447ZM114.45 190H101.22C100.59 188.88 100.1 186.675 99.7499 183.385C96.1099 188.635 90.2999 191.26 82.3199 191.26C76.3699 191.26 71.6099 189.825 68.0399 186.955C64.5399 184.085 62.7899 180.095 62.7899 174.985C62.7899 165.115 69.7199 159.48 83.5799 158.08L91.7699 157.345C94.4999 156.995 96.4599 156.365 97.6499 155.455C98.8399 154.475 99.4349 153.04 99.4349 151.15C99.4349 148.84 98.6649 147.16 97.1249 146.11C95.6549 144.99 93.1349 144.43 89.5649 144.43C85.7149 144.43 82.9499 145.095 81.2699 146.425C79.5899 147.685 78.6099 149.89 78.3299 153.04H65.3099C66.0799 140.72 74.1999 134.56 89.6699 134.56C104.72 134.56 112.245 139.985 112.245 150.835V179.71C112.245 184.47 112.98 187.9 114.45 190ZM85.4699 181.81C89.5999 181.81 92.9599 180.69 95.5499 178.45C98.1399 176.14 99.4349 172.85 99.4349 168.58V163.645C98.1749 164.765 96.1099 165.5 93.2399 165.85L86.0999 166.69C82.5999 167.11 80.0799 167.95 78.5399 169.21C77.0699 170.4 76.3349 172.15 76.3349 174.46C76.3349 176.77 77.1049 178.59 78.6449 179.92C80.2549 181.18 82.5299 181.81 85.4699 181.81ZM161.916 134.56C168.006 134.56 172.346 136.555 174.936 140.545C177.526 144.465 178.016 150.24 176.406 157.87L169.476 190H156.246L163.071 157.765C164.751 149.925 162.266 146.005 155.616 146.005C152.116 146.005 148.966 147.125 146.166 149.365C143.436 151.535 141.581 154.685 140.601 158.815L133.986 190H120.756L132.306 135.82H145.116L143.541 143.17C148.581 137.43 154.706 134.56 161.916 134.56ZM223.594 142.855V115.24H236.824V190H224.014V182.44C220.024 188.32 214.319 191.26 206.899 191.26C199.409 191.26 193.494 188.67 189.154 183.49C184.744 178.31 182.539 171.45 182.539 162.91C182.539 154.23 184.744 147.335 189.154 142.225C193.424 137.115 199.339 134.56 206.899 134.56C214.179 134.56 219.744 137.325 223.594 142.855ZM196.084 163.33C196.084 168.93 197.309 173.165 199.759 176.035C202.209 178.905 205.604 180.34 209.944 180.34C214.284 180.34 217.714 178.835 220.234 175.825C222.684 172.815 223.909 168.51 223.909 162.91C223.909 157.31 222.684 153.005 220.234 149.995C217.784 146.985 214.354 145.48 209.944 145.48C205.674 145.48 202.279 147.055 199.759 150.205C197.309 153.355 196.084 157.73 196.084 163.33ZM315.104 161.125V149.68H348.494V190H338.204L336.209 180.13C330.819 187.83 322.699 191.68 311.849 191.68C301.069 191.68 292.424 188.11 285.914 180.97C279.404 173.83 276.149 164.38 276.149 152.62C276.149 140.86 279.474 131.375 286.124 124.165C292.774 117.095 301.769 113.56 313.109 113.56C322.489 113.56 330.294 115.94 336.524 120.7C342.684 125.46 346.394 131.935 347.654 140.125H333.059C332.009 135.715 329.699 132.25 326.129 129.73C322.629 127.21 318.324 125.95 313.214 125.95C306.354 125.95 300.929 128.33 296.939 133.09C292.949 137.85 290.954 144.36 290.954 152.62C290.954 160.88 292.984 167.39 297.044 172.15C301.104 176.91 306.669 179.29 313.739 179.29C319.339 179.29 324.134 177.61 328.124 174.25C332.114 170.89 334.284 166.515 334.634 161.125H315.104ZM392.34 134.98C393.53 134.98 394.615 135.05 395.595 135.19V147.37H392.235C387.195 147.37 383.31 148.665 380.58 151.255C377.92 153.775 376.59 157.52 376.59 162.49V190H363.36V135.82H376.17V145.48C379.18 138.48 384.57 134.98 392.34 134.98ZM420.99 191.26C411.96 191.26 405.38 188.53 401.25 183.07C397.19 177.54 396.175 169.98 398.205 160.39C399.885 152.62 403.595 146.39 409.335 141.7C415.075 136.94 421.865 134.56 429.705 134.56C438.735 134.56 445.28 137.29 449.34 142.75C453.47 148.21 454.52 155.735 452.49 165.325C450.81 172.955 447.1 179.185 441.36 184.015C435.55 188.845 428.76 191.26 420.99 191.26ZM421.935 180.34C426.205 180.34 429.88 178.87 432.96 175.93C436.11 172.92 438.21 168.825 439.26 163.645C440.52 157.905 440.205 153.46 438.315 150.31C436.425 147.09 433.275 145.48 428.865 145.48C424.665 145.48 420.99 146.985 417.84 149.995C414.69 153.005 412.555 157.03 411.435 162.07C410.245 167.88 410.595 172.395 412.485 175.615C414.445 178.765 417.595 180.34 421.935 180.34ZM523.657 156.085L534.157 135.82H548.647L519.352 190H505.387L503.392 167.74C502.832 162.35 502.412 156.855 502.132 151.255C499.402 157.205 496.777 162.7 494.257 167.74L482.707 190H468.847L462.547 135.82H476.302L478.087 156.085C478.087 156.505 478.402 160.81 479.032 169C479.102 171.1 479.207 173.095 479.347 174.985C484.597 164.135 487.677 157.8 488.587 155.98L498.877 135.82H511.477L513.157 155.98C513.787 166.2 514.172 172.64 514.312 175.3C515.992 171.52 519.107 165.115 523.657 156.085Z" fill="white"/>
</svg>
